<svg width="48" height="16" viewBox="0 0 48 16" xmlns="http://www.w3.org/2000/svg" xmlns:xlink="http://www.w3.org/1999/xlink"><title>toolbar</title><defs><path id="a" d="M0 0h16v16H0z"/><mask id="b" x="0" y="0" width="16" height="16" fill="#fff"><use xlink:href="#a"/></mask></defs><g fill="none" fill-rule="evenodd"><path d="M40 8h-2v1h2v2h1V9h2V8h-2V6h-1v2zm7-3v9H35V0h8v5h4zM33 2h1v14h-1V2zm1 13h11v1H34v-1zM44 4h3l-3-4v4zM28 2V0H17v14h2v-1h-1V1h9v1h1zm-8 1h11v13H20V3zm2 3h7v1h-7V6zm0 2h6v1h-6V8zm0 4h5v1h-5v-1zm0-2h6v1h-6v-1z" fill="#FFF"/><g><use stroke="#FFF" mask="url(#b)" stroke-width="2" stroke-dasharray="1" xlink:href="#a"/><path d="M3 3h4v4H3V3zm6 0h4v4H9V3zM3 9h4v4H3V9zm6 0h4v4H9V9z" fill="#FFF"/></g></g></svg>